<?xml version="1.0" encoding="utf-8" standalone="no"?>
<!DOCTYPE svg PUBLIC "-//W3C//DTD SVG 1.1//EN"
  "http://www.w3.org/Graphics/SVG/1.1/DTD/svg11.dtd">
<svg xmlns:xlink="http://www.w3.org/1999/xlink" width="257.365604pt" height="307.860238pt" viewBox="0 0 257.365604 307.860238" xmlns="http://www.w3.org/2000/svg" version="1.1">
 <metadata>
  <rdf:RDF xmlns:dc="http://purl.org/dc/elements/1.1/" xmlns:cc="http://creativecommons.org/ns#" xmlns:rdf="http://www.w3.org/1999/02/22-rdf-syntax-ns#">
   <cc:Work>
    <dc:type rdf:resource="http://purl.org/dc/dcmitype/StillImage"/>
    <dc:date>2026-05-22T14:33:28.741414</dc:date>
    <dc:format>image/svg+xml</dc:format>
    <dc:creator>
     <cc:Agent>
      <dc:title>Matplotlib v3.9.4, https://matplotlib.org/</dc:title>
     </cc:Agent>
    </dc:creator>
   </cc:Work>
  </rdf:RDF>
 </metadata>
 <defs>
  <style type="text/css">*{stroke-linejoin: round; stroke-linecap: butt}</style>
 </defs>
 <g id="figure_1">
  <g id="patch_1">
   <path d="M 0 307.860238 
L 257.365604 307.860238 
L 257.365604 0 
L 0 0 
z
" style="fill: #ffffff"/>
  </g>
  <g id="axes_1">
   <g id="patch_2">
    <path d="M 245.412427 134.637125 
C 245.412427 119.49029 242.428831 104.490738 236.632388 90.496887 
C 230.835945 76.503036 222.339382 63.78703 211.628952 53.0766 
C 200.918522 42.36617 188.202516 33.869607 174.208665 28.073164 
C 160.214814 22.276721 145.215262 19.293125 130.068427 19.293125 
C 114.921592 19.293125 99.92204 22.276721 85.928189 28.073164 
C 71.934338 33.869607 59.218333 42.36617 48.507903 53.0766 
C 37.797473 63.78703 29.300909 76.503036 23.504466 90.496887 
C 17.708023 104.490738 14.724427 119.49029 14.724427 134.637125 
C 14.724427 149.78396 17.708023 164.783512 23.504466 178.777363 
C 29.300909 192.771214 37.797473 205.48722 48.507903 216.19765 
C 59.218333 226.90808 71.934338 235.404643 85.928189 241.201086 
C 99.92204 246.997529 114.921592 249.981125 130.068427 249.981125 
C 145.215262 249.981125 160.214814 246.997529 174.208665 241.201086 
C 188.202516 235.404643 200.918522 226.90808 211.628952 216.19765 
C 222.339382 205.48722 230.835945 192.771214 236.632388 178.777363 
C 242.428831 164.783512 245.412427 149.78396 245.412427 134.637125 
M 130.068427 134.637125 
C 130.068427 134.637125 130.068427 134.637125 130.068427 134.637125 
C 130.068427 134.637125 130.068427 134.637125 130.068427 134.637125 
C 130.068427 134.637125 130.068427 134.637125 130.068427 134.637125 
C 130.068427 134.637125 130.068427 134.637125 130.068427 134.637125 
C 130.068427 134.637125 130.068427 134.637125 130.068427 134.637125 
C 130.068427 134.637125 130.068427 134.637125 130.068427 134.637125 
C 130.068427 134.637125 130.068427 134.637125 130.068427 134.637125 
C 130.068427 134.637125 130.068427 134.637125 130.068427 134.637125 
C 130.068427 134.637125 130.068427 134.637125 130.068427 134.637125 
C 130.068427 134.637125 130.068427 134.637125 130.068427 134.637125 
C 130.068427 134.637125 130.068427 134.637125 130.068427 134.637125 
C 130.068427 134.637125 130.068427 134.637125 130.068427 134.637125 
C 130.068427 134.637125 130.068427 134.637125 130.068427 134.637125 
C 130.068427 134.637125 130.068427 134.637125 130.068427 134.637125 
C 130.068427 134.637125 130.068427 134.637125 130.068427 134.637125 
C 130.068427 134.637125 130.068427 134.637125 130.068427 134.637125 
z
" style="fill: #ffffff"/>
   </g>
   <g id="patch_3">
    <path d="M 130.068427 35.921483 
L 187.240493 101.628817 
L 215.775026 184.119853 
L 130.068427 211.996005 
L 47.974741 182.033937 
L 36.070333 80.3673 
z
" clip-path="url(#pf5e02a3ac5)" style="fill: #4e79a7; opacity: 0.08; stroke: #4e79a7; stroke-linejoin: miter"/>
   </g>
   <g id="patch_4">
    <path d="M 130.068427 34.76722 
L 189.874531 100.108055 
L 214.152708 183.183207 
L 130.068427 222.07048 
L 43.580334 184.571049 
L 36.288379 80.493189 
z
" clip-path="url(#pf5e02a3ac5)" style="fill: #b55d60; opacity: 0.08; stroke: #b55d60; stroke-linejoin: miter"/>
   </g>
   <g id="matplotlib.axis_1">
    <g id="xtick_1">
     <g id="line2d_1">
      <path d="M 130.068427 134.637125 
L 130.068427 19.293125 
" clip-path="url(#pf5e02a3ac5)" style="fill: none; stroke: #b0b0b0; stroke-opacity: 0.45; stroke-width: 0.6; stroke-linecap: square"/>
     </g>
     <g id="text_1">
      <!-- Vis. -->
      <g transform="translate(123.751552 7.715) scale(0.08 -0.08)">
       <defs>
        <path id="TimesNewRomanPSMT-56" d="M 4544 4238 
L 4544 4122 
Q 4319 4081 4203 3978 
Q 4038 3825 3909 3509 
L 2431 -97 
L 2316 -97 
L 728 3556 
Q 606 3838 556 3900 
Q 478 3997 364 4051 
Q 250 4106 56 4122 
L 56 4238 
L 1788 4238 
L 1788 4122 
Q 1494 4094 1406 4022 
Q 1319 3950 1319 3838 
Q 1319 3681 1463 3350 
L 2541 866 
L 3541 3319 
Q 3688 3681 3688 3822 
Q 3688 3913 3597 3995 
Q 3506 4078 3291 4113 
Q 3275 4116 3238 4122 
L 3238 4238 
L 4544 4238 
z
" transform="scale(0.015625)"/>
        <path id="TimesNewRomanPSMT-69" d="M 928 4444 
Q 1059 4444 1151 4351 
Q 1244 4259 1244 4128 
Q 1244 3997 1151 3903 
Q 1059 3809 928 3809 
Q 797 3809 703 3903 
Q 609 3997 609 4128 
Q 609 4259 701 4351 
Q 794 4444 928 4444 
z
M 1188 2947 
L 1188 647 
Q 1188 378 1227 289 
Q 1266 200 1342 156 
Q 1419 113 1622 113 
L 1622 0 
L 231 0 
L 231 113 
Q 441 113 512 153 
Q 584 194 626 287 
Q 669 381 669 647 
L 669 1750 
Q 669 2216 641 2353 
Q 619 2453 572 2492 
Q 525 2531 444 2531 
Q 356 2531 231 2484 
L 188 2597 
L 1050 2947 
L 1188 2947 
z
" transform="scale(0.015625)"/>
        <path id="TimesNewRomanPSMT-73" d="M 2050 2947 
L 2050 1972 
L 1947 1972 
Q 1828 2431 1642 2597 
Q 1456 2763 1169 2763 
Q 950 2763 815 2647 
Q 681 2531 681 2391 
Q 681 2216 781 2091 
Q 878 1963 1175 1819 
L 1631 1597 
Q 2266 1288 2266 781 
Q 2266 391 1970 151 
Q 1675 -88 1309 -88 
Q 1047 -88 709 6 
Q 606 38 541 38 
Q 469 38 428 -44 
L 325 -44 
L 325 978 
L 428 978 
Q 516 541 762 319 
Q 1009 97 1316 97 
Q 1531 97 1667 223 
Q 1803 350 1803 528 
Q 1803 744 1651 891 
Q 1500 1038 1047 1263 
Q 594 1488 453 1669 
Q 313 1847 313 2119 
Q 313 2472 555 2709 
Q 797 2947 1181 2947 
Q 1350 2947 1591 2875 
Q 1750 2828 1803 2828 
Q 1853 2828 1881 2850 
Q 1909 2872 1947 2947 
L 2050 2947 
z
" transform="scale(0.015625)"/>
        <path id="TimesNewRomanPSMT-2e" d="M 800 606 
Q 947 606 1047 504 
Q 1147 403 1147 259 
Q 1147 116 1045 14 
Q 944 -88 800 -88 
Q 656 -88 554 14 
Q 453 116 453 259 
Q 453 406 554 506 
Q 656 606 800 606 
z
" transform="scale(0.015625)"/>
       </defs>
       <use xlink:href="#TimesNewRomanPSMT-56"/>
       <use xlink:href="#TimesNewRomanPSMT-69" x="66.216797"/>
       <use xlink:href="#TimesNewRomanPSMT-73" x="94"/>
       <use xlink:href="#TimesNewRomanPSMT-2e" x="132.916016"/>
      </g>
     </g>
    </g>
    <g id="xtick_2">
     <g id="line2d_2">
      <path d="M 130.068427 134.637125 
L 229.959261 76.965125 
" clip-path="url(#pf5e02a3ac5)" style="fill: none; stroke: #b0b0b0; stroke-opacity: 0.45; stroke-width: 0.6; stroke-linecap: square"/>
     </g>
     <g id="text_2">
      <!-- Contrast -->
      <g transform="translate(228.095604 72.137) scale(0.08 -0.08)">
       <defs>
        <path id="TimesNewRomanPSMT-43" d="M 3853 4334 
L 3950 2894 
L 3853 2894 
Q 3659 3541 3300 3825 
Q 2941 4109 2438 4109 
Q 2016 4109 1675 3895 
Q 1334 3681 1139 3212 
Q 944 2744 944 2047 
Q 944 1472 1128 1050 
Q 1313 628 1683 403 
Q 2053 178 2528 178 
Q 2941 178 3256 354 
Q 3572 531 3950 1056 
L 4047 994 
Q 3728 428 3303 165 
Q 2878 -97 2294 -97 
Q 1241 -97 663 684 
Q 231 1266 231 2053 
Q 231 2688 515 3219 
Q 800 3750 1298 4042 
Q 1797 4334 2388 4334 
Q 2847 4334 3294 4109 
Q 3425 4041 3481 4041 
Q 3566 4041 3628 4100 
Q 3709 4184 3744 4334 
L 3853 4334 
z
" transform="scale(0.015625)"/>
        <path id="TimesNewRomanPSMT-6f" d="M 1600 2947 
Q 2250 2947 2644 2453 
Q 2978 2031 2978 1484 
Q 2978 1100 2793 706 
Q 2609 313 2286 112 
Q 1963 -88 1566 -88 
Q 919 -88 538 428 
Q 216 863 216 1403 
Q 216 1797 411 2186 
Q 606 2575 925 2761 
Q 1244 2947 1600 2947 
z
M 1503 2744 
Q 1338 2744 1170 2645 
Q 1003 2547 900 2300 
Q 797 2053 797 1666 
Q 797 1041 1045 587 
Q 1294 134 1700 134 
Q 2003 134 2200 384 
Q 2397 634 2397 1244 
Q 2397 2006 2069 2444 
Q 1847 2744 1503 2744 
z
" transform="scale(0.015625)"/>
        <path id="TimesNewRomanPSMT-6e" d="M 1034 2341 
Q 1538 2947 1994 2947 
Q 2228 2947 2397 2830 
Q 2566 2713 2666 2444 
Q 2734 2256 2734 1869 
L 2734 647 
Q 2734 375 2778 278 
Q 2813 200 2889 156 
Q 2966 113 3172 113 
L 3172 0 
L 1756 0 
L 1756 113 
L 1816 113 
Q 2016 113 2095 173 
Q 2175 234 2206 353 
Q 2219 400 2219 647 
L 2219 1819 
Q 2219 2209 2117 2386 
Q 2016 2563 1775 2563 
Q 1403 2563 1034 2156 
L 1034 647 
Q 1034 356 1069 288 
Q 1113 197 1189 155 
Q 1266 113 1500 113 
L 1500 0 
L 84 0 
L 84 113 
L 147 113 
Q 366 113 442 223 
Q 519 334 519 647 
L 519 1709 
Q 519 2225 495 2337 
Q 472 2450 423 2490 
Q 375 2531 294 2531 
Q 206 2531 84 2484 
L 38 2597 
L 900 2947 
L 1034 2947 
L 1034 2341 
z
" transform="scale(0.015625)"/>
        <path id="TimesNewRomanPSMT-74" d="M 1031 3803 
L 1031 2863 
L 1700 2863 
L 1700 2644 
L 1031 2644 
L 1031 788 
Q 1031 509 1111 412 
Q 1191 316 1316 316 
Q 1419 316 1516 380 
Q 1613 444 1666 569 
L 1788 569 
Q 1678 263 1478 108 
Q 1278 -47 1066 -47 
Q 922 -47 784 33 
Q 647 113 581 261 
Q 516 409 516 719 
L 516 2644 
L 63 2644 
L 63 2747 
Q 234 2816 414 2980 
Q 594 3144 734 3369 
Q 806 3488 934 3803 
L 1031 3803 
z
" transform="scale(0.015625)"/>
        <path id="TimesNewRomanPSMT-72" d="M 1038 2947 
L 1038 2303 
Q 1397 2947 1775 2947 
Q 1947 2947 2059 2842 
Q 2172 2738 2172 2600 
Q 2172 2478 2090 2393 
Q 2009 2309 1897 2309 
Q 1788 2309 1652 2417 
Q 1516 2525 1450 2525 
Q 1394 2525 1328 2463 
Q 1188 2334 1038 2041 
L 1038 669 
Q 1038 431 1097 309 
Q 1138 225 1241 169 
Q 1344 113 1538 113 
L 1538 0 
L 72 0 
L 72 113 
Q 291 113 397 181 
Q 475 231 506 341 
Q 522 394 522 644 
L 522 1753 
Q 522 2253 501 2348 
Q 481 2444 426 2487 
Q 372 2531 291 2531 
Q 194 2531 72 2484 
L 41 2597 
L 906 2947 
L 1038 2947 
z
" transform="scale(0.015625)"/>
        <path id="TimesNewRomanPSMT-61" d="M 1822 413 
Q 1381 72 1269 19 
Q 1100 -59 909 -59 
Q 613 -59 420 144 
Q 228 347 228 678 
Q 228 888 322 1041 
Q 450 1253 767 1440 
Q 1084 1628 1822 1897 
L 1822 2009 
Q 1822 2438 1686 2597 
Q 1550 2756 1291 2756 
Q 1094 2756 978 2650 
Q 859 2544 859 2406 
L 866 2225 
Q 866 2081 792 2003 
Q 719 1925 600 1925 
Q 484 1925 411 2006 
Q 338 2088 338 2228 
Q 338 2497 613 2722 
Q 888 2947 1384 2947 
Q 1766 2947 2009 2819 
Q 2194 2722 2281 2516 
Q 2338 2381 2338 1966 
L 2338 994 
Q 2338 584 2353 492 
Q 2369 400 2405 369 
Q 2441 338 2488 338 
Q 2538 338 2575 359 
Q 2641 400 2828 588 
L 2828 413 
Q 2478 -56 2159 -56 
Q 2006 -56 1915 50 
Q 1825 156 1822 413 
z
M 1822 616 
L 1822 1706 
Q 1350 1519 1213 1441 
Q 966 1303 859 1153 
Q 753 1003 753 825 
Q 753 600 887 451 
Q 1022 303 1197 303 
Q 1434 303 1822 616 
z
" transform="scale(0.015625)"/>
       </defs>
       <use xlink:href="#TimesNewRomanPSMT-43"/>
       <use xlink:href="#TimesNewRomanPSMT-6f" x="66.699219"/>
       <use xlink:href="#TimesNewRomanPSMT-6e" x="116.699219"/>
       <use xlink:href="#TimesNewRomanPSMT-74" x="166.699219"/>
       <use xlink:href="#TimesNewRomanPSMT-72" x="194.482422"/>
       <use xlink:href="#TimesNewRomanPSMT-61" x="227.783203"/>
       <use xlink:href="#TimesNewRomanPSMT-73" x="272.167969"/>
       <use xlink:href="#TimesNewRomanPSMT-74" x="311.083984"/>
      </g>
     </g>
    </g>
    <g id="xtick_3">
     <g id="line2d_3">
      <path d="M 130.068427 134.637125 
L 229.959261 192.309125 
" clip-path="url(#pf5e02a3ac5)" style="fill: none; stroke: #b0b0b0; stroke-opacity: 0.45; stroke-width: 0.6; stroke-linecap: square"/>
     </g>
     <g id="text_3">
      <!-- Entropy -->
      <g transform="translate(228.764354 200.966) scale(0.08 -0.08)">
       <defs>
        <path id="TimesNewRomanPSMT-45" d="M 1338 4006 
L 1338 2331 
L 2269 2331 
Q 2631 2331 2753 2441 
Q 2916 2584 2934 2947 
L 3050 2947 
L 3050 1472 
L 2934 1472 
Q 2891 1781 2847 1869 
Q 2791 1978 2662 2040 
Q 2534 2103 2269 2103 
L 1338 2103 
L 1338 706 
Q 1338 425 1363 364 
Q 1388 303 1450 267 
Q 1513 231 1688 231 
L 2406 231 
Q 2766 231 2928 281 
Q 3091 331 3241 478 
Q 3434 672 3638 1063 
L 3763 1063 
L 3397 0 
L 131 0 
L 131 116 
L 281 116 
Q 431 116 566 188 
Q 666 238 702 338 
Q 738 438 738 747 
L 738 3500 
Q 738 3903 656 3997 
Q 544 4122 281 4122 
L 131 4122 
L 131 4238 
L 3397 4238 
L 3444 3309 
L 3322 3309 
Q 3256 3644 3176 3769 
Q 3097 3894 2941 3959 
Q 2816 4006 2500 4006 
L 1338 4006 
z
" transform="scale(0.015625)"/>
        <path id="TimesNewRomanPSMT-70" d="M -6 2578 
L 875 2934 
L 994 2934 
L 994 2266 
Q 1216 2644 1439 2795 
Q 1663 2947 1909 2947 
Q 2341 2947 2628 2609 
Q 2981 2197 2981 1534 
Q 2981 794 2556 309 
Q 2206 -88 1675 -88 
Q 1444 -88 1275 -22 
Q 1150 25 994 166 
L 994 -706 
Q 994 -1000 1030 -1079 
Q 1066 -1159 1155 -1206 
Q 1244 -1253 1478 -1253 
L 1478 -1369 
L -22 -1369 
L -22 -1253 
L 56 -1253 
Q 228 -1256 350 -1188 
Q 409 -1153 442 -1076 
Q 475 -1000 475 -688 
L 475 2019 
Q 475 2297 450 2372 
Q 425 2447 370 2484 
Q 316 2522 222 2522 
Q 147 2522 31 2478 
L -6 2578 
z
M 994 2081 
L 994 1013 
Q 994 666 1022 556 
Q 1066 375 1236 237 
Q 1406 100 1666 100 
Q 1978 100 2172 344 
Q 2425 663 2425 1241 
Q 2425 1897 2138 2250 
Q 1938 2494 1663 2494 
Q 1513 2494 1366 2419 
Q 1253 2363 994 2081 
z
" transform="scale(0.015625)"/>
        <path id="TimesNewRomanPSMT-79" d="M 38 2863 
L 1372 2863 
L 1372 2747 
L 1306 2747 
Q 1166 2747 1095 2686 
Q 1025 2625 1025 2534 
Q 1025 2413 1128 2197 
L 1825 753 
L 2466 2334 
Q 2519 2463 2519 2588 
Q 2519 2644 2497 2672 
Q 2472 2706 2419 2726 
Q 2366 2747 2231 2747 
L 2231 2863 
L 3163 2863 
L 3163 2747 
Q 3047 2734 2984 2696 
Q 2922 2659 2847 2556 
Q 2819 2513 2741 2316 
L 1575 -541 
Q 1406 -956 1132 -1168 
Q 859 -1381 606 -1381 
Q 422 -1381 303 -1275 
Q 184 -1169 184 -1031 
Q 184 -900 270 -820 
Q 356 -741 506 -741 
Q 609 -741 788 -809 
Q 913 -856 944 -856 
Q 1038 -856 1148 -759 
Q 1259 -663 1372 -384 
L 1575 113 
L 547 2272 
Q 500 2369 397 2513 
Q 319 2622 269 2659 
Q 197 2709 38 2747 
L 38 2863 
z
" transform="scale(0.015625)"/>
       </defs>
       <use xlink:href="#TimesNewRomanPSMT-45"/>
       <use xlink:href="#TimesNewRomanPSMT-6e" x="61.083984"/>
       <use xlink:href="#TimesNewRomanPSMT-74" x="111.083984"/>
       <use xlink:href="#TimesNewRomanPSMT-72" x="138.867188"/>
       <use xlink:href="#TimesNewRomanPSMT-6f" x="172.167969"/>
       <use xlink:href="#TimesNewRomanPSMT-70" x="222.167969"/>
       <use xlink:href="#TimesNewRomanPSMT-79" x="272.167969"/>
      </g>
     </g>
    </g>
    <g id="xtick_4">
     <g id="line2d_4">
      <path d="M 130.068427 134.637125 
L 130.068427 249.981125 
" clip-path="url(#pf5e02a3ac5)" style="fill: none; stroke: #b0b0b0; stroke-opacity: 0.45; stroke-width: 0.6; stroke-linecap: square"/>
     </g>
     <g id="text_4">
      <!-- Sharp. -->
      <g transform="translate(119.736552 265.403) scale(0.08 -0.08)">
       <defs>
        <path id="TimesNewRomanPSMT-53" d="M 2934 4334 
L 2934 2869 
L 2819 2869 
Q 2763 3291 2617 3541 
Q 2472 3791 2203 3937 
Q 1934 4084 1647 4084 
Q 1322 4084 1109 3886 
Q 897 3688 897 3434 
Q 897 3241 1031 3081 
Q 1225 2847 1953 2456 
Q 2547 2138 2764 1967 
Q 2981 1797 3098 1565 
Q 3216 1334 3216 1081 
Q 3216 600 2842 251 
Q 2469 -97 1881 -97 
Q 1697 -97 1534 -69 
Q 1438 -53 1133 45 
Q 828 144 747 144 
Q 669 144 623 97 
Q 578 50 556 -97 
L 441 -97 
L 441 1356 
L 556 1356 
Q 638 900 775 673 
Q 913 447 1195 297 
Q 1478 147 1816 147 
Q 2206 147 2432 353 
Q 2659 559 2659 841 
Q 2659 997 2573 1156 
Q 2488 1316 2306 1453 
Q 2184 1547 1640 1851 
Q 1097 2156 867 2337 
Q 638 2519 519 2737 
Q 400 2956 400 3219 
Q 400 3675 750 4004 
Q 1100 4334 1641 4334 
Q 1978 4334 2356 4169 
Q 2531 4091 2603 4091 
Q 2684 4091 2736 4139 
Q 2788 4188 2819 4334 
L 2934 4334 
z
" transform="scale(0.015625)"/>
        <path id="TimesNewRomanPSMT-68" d="M 1041 4444 
L 1041 2350 
Q 1388 2731 1591 2839 
Q 1794 2947 1997 2947 
Q 2241 2947 2416 2812 
Q 2591 2678 2675 2391 
Q 2734 2191 2734 1659 
L 2734 647 
Q 2734 375 2778 275 
Q 2809 200 2884 156 
Q 2959 113 3159 113 
L 3159 0 
L 1753 0 
L 1753 113 
L 1819 113 
Q 2019 113 2097 173 
Q 2175 234 2206 353 
Q 2216 403 2216 647 
L 2216 1659 
Q 2216 2128 2167 2275 
Q 2119 2422 2012 2495 
Q 1906 2569 1756 2569 
Q 1603 2569 1437 2487 
Q 1272 2406 1041 2159 
L 1041 647 
Q 1041 353 1073 281 
Q 1106 209 1195 161 
Q 1284 113 1503 113 
L 1503 0 
L 84 0 
L 84 113 
Q 275 113 384 172 
Q 447 203 484 290 
Q 522 378 522 647 
L 522 3238 
Q 522 3728 498 3840 
Q 475 3953 426 3993 
Q 378 4034 297 4034 
Q 231 4034 84 3984 
L 41 4094 
L 897 4444 
L 1041 4444 
z
" transform="scale(0.015625)"/>
       </defs>
       <use xlink:href="#TimesNewRomanPSMT-53"/>
       <use xlink:href="#TimesNewRomanPSMT-68" x="55.615234"/>
       <use xlink:href="#TimesNewRomanPSMT-61" x="105.615234"/>
       <use xlink:href="#TimesNewRomanPSMT-72" x="150"/>
       <use xlink:href="#TimesNewRomanPSMT-70" x="183.300781"/>
       <use xlink:href="#TimesNewRomanPSMT-2e" x="233.300781"/>
      </g>
     </g>
    </g>
    <g id="xtick_5">
     <g id="line2d_5">
      <path d="M 130.068427 134.637125 
L 30.177593 192.309125 
" clip-path="url(#pf5e02a3ac5)" style="fill: none; stroke: #b0b0b0; stroke-opacity: 0.45; stroke-width: 0.6; stroke-linecap: square"/>
     </g>
     <g id="text_5">
      <!-- Low dark -->
      <g transform="translate(3.046875 200.981) scale(0.08 -0.08)">
       <defs>
        <path id="TimesNewRomanPSMT-4c" d="M 3669 1172 
L 3772 1150 
L 3409 0 
L 128 0 
L 128 116 
L 288 116 
Q 556 116 672 291 
Q 738 391 738 753 
L 738 3488 
Q 738 3884 650 3984 
Q 528 4122 288 4122 
L 128 4122 
L 128 4238 
L 2047 4238 
L 2047 4122 
Q 1709 4125 1573 4059 
Q 1438 3994 1388 3894 
Q 1338 3794 1338 3416 
L 1338 753 
Q 1338 494 1388 397 
Q 1425 331 1503 300 
Q 1581 269 1991 269 
L 2300 269 
Q 2788 269 2984 341 
Q 3181 413 3343 595 
Q 3506 778 3669 1172 
z
" transform="scale(0.015625)"/>
        <path id="TimesNewRomanPSMT-77" d="M 41 2863 
L 1241 2863 
L 1241 2747 
Q 1075 2734 1023 2687 
Q 972 2641 972 2553 
Q 972 2456 1025 2319 
L 1638 672 
L 2253 2013 
L 2091 2434 
Q 2016 2622 1894 2694 
Q 1825 2738 1638 2747 
L 1638 2863 
L 3000 2863 
L 3000 2747 
Q 2775 2738 2681 2666 
Q 2619 2616 2619 2506 
Q 2619 2444 2644 2378 
L 3294 734 
L 3897 2319 
Q 3959 2488 3959 2588 
Q 3959 2647 3898 2694 
Q 3838 2741 3659 2747 
L 3659 2863 
L 4563 2863 
L 4563 2747 
Q 4291 2706 4163 2378 
L 3206 -88 
L 3078 -88 
L 2363 1741 
L 1528 -88 
L 1413 -88 
L 494 2319 
Q 403 2547 315 2626 
Q 228 2706 41 2747 
L 41 2863 
z
" transform="scale(0.015625)"/>
        <path id="TimesNewRomanPSMT-20" transform="scale(0.015625)"/>
        <path id="TimesNewRomanPSMT-64" d="M 2222 322 
Q 2013 103 1813 7 
Q 1613 -88 1381 -88 
Q 913 -88 563 304 
Q 213 697 213 1313 
Q 213 1928 600 2439 
Q 988 2950 1597 2950 
Q 1975 2950 2222 2709 
L 2222 3238 
Q 2222 3728 2198 3840 
Q 2175 3953 2125 3993 
Q 2075 4034 2000 4034 
Q 1919 4034 1784 3984 
L 1744 4094 
L 2597 4444 
L 2738 4444 
L 2738 1134 
Q 2738 631 2761 520 
Q 2784 409 2836 365 
Q 2888 322 2956 322 
Q 3041 322 3181 375 
L 3216 266 
L 2366 -88 
L 2222 -88 
L 2222 322 
z
M 2222 541 
L 2222 2016 
Q 2203 2228 2109 2403 
Q 2016 2578 1861 2667 
Q 1706 2756 1559 2756 
Q 1284 2756 1069 2509 
Q 784 2184 784 1559 
Q 784 928 1059 592 
Q 1334 256 1672 256 
Q 1956 256 2222 541 
z
" transform="scale(0.015625)"/>
        <path id="TimesNewRomanPSMT-6b" d="M 1047 4444 
L 1047 1597 
L 1775 2259 
Q 2006 2472 2044 2528 
Q 2069 2566 2069 2603 
Q 2069 2666 2017 2711 
Q 1966 2756 1847 2763 
L 1847 2863 
L 3091 2863 
L 3091 2763 
Q 2834 2756 2664 2684 
Q 2494 2613 2291 2428 
L 1556 1750 
L 2291 822 
Q 2597 438 2703 334 
Q 2853 188 2966 144 
Q 3044 113 3238 113 
L 3238 0 
L 1847 0 
L 1847 113 
Q 1966 116 2008 148 
Q 2050 181 2050 241 
Q 2050 313 1925 472 
L 1047 1594 
L 1047 644 
Q 1047 366 1086 278 
Q 1125 191 1197 153 
Q 1269 116 1509 113 
L 1509 0 
L 53 0 
L 53 113 
Q 272 113 381 166 
Q 447 200 481 272 
Q 528 375 528 628 
L 528 3234 
Q 528 3731 506 3842 
Q 484 3953 434 3995 
Q 384 4038 303 4038 
Q 238 4038 106 3984 
L 53 4094 
L 903 4444 
L 1047 4444 
z
" transform="scale(0.015625)"/>
       </defs>
       <use xlink:href="#TimesNewRomanPSMT-4c"/>
       <use xlink:href="#TimesNewRomanPSMT-6f" x="61.083984"/>
       <use xlink:href="#TimesNewRomanPSMT-77" x="111.083984"/>
       <use xlink:href="#TimesNewRomanPSMT-20" x="183.300781"/>
       <use xlink:href="#TimesNewRomanPSMT-64" x="208.300781"/>
       <use xlink:href="#TimesNewRomanPSMT-61" x="258.300781"/>
       <use xlink:href="#TimesNewRomanPSMT-72" x="302.685547"/>
       <use xlink:href="#TimesNewRomanPSMT-6b" x="335.986328"/>
      </g>
     </g>
    </g>
    <g id="xtick_6">
     <g id="line2d_6">
      <path d="M 130.068427 134.637125 
L 30.177593 76.965125 
" clip-path="url(#pf5e02a3ac5)" style="fill: none; stroke: #b0b0b0; stroke-opacity: 0.45; stroke-width: 0.6; stroke-linecap: square"/>
     </g>
     <g id="text_6">
      <!-- Low glare -->
      <g transform="translate(2.16 72.1295) scale(0.08 -0.08)">
       <defs>
        <path id="TimesNewRomanPSMT-67" d="M 966 1044 
Q 703 1172 562 1401 
Q 422 1631 422 1909 
Q 422 2334 742 2640 
Q 1063 2947 1563 2947 
Q 1972 2947 2272 2747 
L 2878 2747 
Q 3013 2747 3034 2739 
Q 3056 2731 3066 2713 
Q 3084 2684 3084 2613 
Q 3084 2531 3069 2500 
Q 3059 2484 3036 2475 
Q 3013 2466 2878 2466 
L 2506 2466 
Q 2681 2241 2681 1891 
Q 2681 1491 2375 1206 
Q 2069 922 1553 922 
Q 1341 922 1119 984 
Q 981 866 932 777 
Q 884 688 884 625 
Q 884 572 936 522 
Q 988 472 1138 450 
Q 1225 438 1575 428 
Q 2219 413 2409 384 
Q 2700 344 2873 169 
Q 3047 -6 3047 -263 
Q 3047 -616 2716 -925 
Q 2228 -1381 1444 -1381 
Q 841 -1381 425 -1109 
Q 191 -953 191 -784 
Q 191 -709 225 -634 
Q 278 -519 444 -313 
Q 466 -284 763 25 
Q 600 122 533 198 
Q 466 275 466 372 
Q 466 481 555 628 
Q 644 775 966 1044 
z
M 1509 2797 
Q 1278 2797 1122 2612 
Q 966 2428 966 2047 
Q 966 1553 1178 1281 
Q 1341 1075 1591 1075 
Q 1828 1075 1981 1253 
Q 2134 1431 2134 1813 
Q 2134 2309 1919 2591 
Q 1759 2797 1509 2797 
z
M 934 0 
Q 788 -159 713 -296 
Q 638 -434 638 -550 
Q 638 -700 819 -813 
Q 1131 -1006 1722 -1006 
Q 2284 -1006 2551 -807 
Q 2819 -609 2819 -384 
Q 2819 -222 2659 -153 
Q 2497 -84 2016 -72 
Q 1313 -53 934 0 
z
" transform="scale(0.015625)"/>
        <path id="TimesNewRomanPSMT-6c" d="M 1184 4444 
L 1184 647 
Q 1184 378 1223 290 
Q 1263 203 1344 158 
Q 1425 113 1647 113 
L 1647 0 
L 244 0 
L 244 113 
Q 441 113 512 153 
Q 584 194 625 287 
Q 666 381 666 647 
L 666 3247 
Q 666 3731 644 3842 
Q 622 3953 573 3993 
Q 525 4034 450 4034 
Q 369 4034 244 3984 
L 191 4094 
L 1044 4444 
L 1184 4444 
z
" transform="scale(0.015625)"/>
        <path id="TimesNewRomanPSMT-65" d="M 681 1784 
Q 678 1147 991 784 
Q 1303 422 1725 422 
Q 2006 422 2214 576 
Q 2422 731 2563 1106 
L 2659 1044 
Q 2594 616 2278 264 
Q 1963 -88 1488 -88 
Q 972 -88 605 314 
Q 238 716 238 1394 
Q 238 2128 614 2539 
Q 991 2950 1559 2950 
Q 2041 2950 2350 2633 
Q 2659 2316 2659 1784 
L 681 1784 
z
M 681 1966 
L 2006 1966 
Q 1991 2241 1941 2353 
Q 1863 2528 1708 2628 
Q 1553 2728 1384 2728 
Q 1125 2728 920 2526 
Q 716 2325 681 1966 
z
" transform="scale(0.015625)"/>
       </defs>
       <use xlink:href="#TimesNewRomanPSMT-4c"/>
       <use xlink:href="#TimesNewRomanPSMT-6f" x="61.083984"/>
       <use xlink:href="#TimesNewRomanPSMT-77" x="111.083984"/>
       <use xlink:href="#TimesNewRomanPSMT-20" x="183.300781"/>
       <use xlink:href="#TimesNewRomanPSMT-67" x="208.300781"/>
       <use xlink:href="#TimesNewRomanPSMT-6c" x="258.300781"/>
       <use xlink:href="#TimesNewRomanPSMT-61" x="286.083984"/>
       <use xlink:href="#TimesNewRomanPSMT-72" x="330.46875"/>
       <use xlink:href="#TimesNewRomanPSMT-65" x="363.769531"/>
      </g>
     </g>
    </g>
   </g>
   <g id="matplotlib.axis_2">
    <g id="ytick_1">
     <g id="line2d_7">
      <path d="M 130.068427 107.174268 
C 133.674816 107.174268 137.246138 107.884648 140.578008 109.264753 
C 143.909877 110.644859 146.937497 112.66785 149.4876 115.217952 
C 152.037702 117.768055 154.060693 120.795675 155.440799 124.127545 
C 156.820904 127.459414 157.531284 131.030736 157.531284 134.637125 
C 157.531284 138.243514 156.820904 141.814836 155.440799 145.146705 
C 154.060693 148.478575 152.037702 151.506195 149.4876 154.056298 
C 146.937497 156.6064 143.909877 158.629391 140.578008 160.009497 
C 137.246138 161.389602 133.674816 162.099982 130.068427 162.099982 
C 126.462038 162.099982 122.890716 161.389602 119.558847 160.009497 
C 116.226977 158.629391 113.199357 156.6064 110.649255 154.056298 
C 108.099152 151.506195 106.076161 148.478575 104.696056 145.146705 
C 103.31595 141.814836 102.60557 138.243514 102.60557 134.637125 
C 102.60557 131.030736 103.31595 127.459414 104.696056 124.127545 
C 106.076161 120.795675 108.099152 117.768055 110.649255 115.217952 
C 113.199357 112.66785 116.226977 110.644859 119.558847 109.264753 
C 122.890716 107.884648 126.462038 107.174268 130.068427 107.174268 
" clip-path="url(#pf5e02a3ac5)" style="fill: none; stroke: #b0b0b0; stroke-opacity: 0.45; stroke-width: 0.6; stroke-linecap: square"/>
     </g>
     <g id="text_7">
      <!-- 0.25 -->
      <g transform="translate(140.578008 107.553503) scale(0.08 -0.08)">
       <defs>
        <path id="TimesNewRomanPSMT-30" d="M 231 2094 
Q 231 2819 450 3342 
Q 669 3866 1031 4122 
Q 1313 4325 1613 4325 
Q 2100 4325 2488 3828 
Q 2972 3213 2972 2159 
Q 2972 1422 2759 906 
Q 2547 391 2217 158 
Q 1888 -75 1581 -75 
Q 975 -75 572 641 
Q 231 1244 231 2094 
z
M 844 2016 
Q 844 1141 1059 588 
Q 1238 122 1591 122 
Q 1759 122 1940 273 
Q 2122 425 2216 781 
Q 2359 1319 2359 2297 
Q 2359 3022 2209 3506 
Q 2097 3866 1919 4016 
Q 1791 4119 1609 4119 
Q 1397 4119 1231 3928 
Q 1006 3669 925 3112 
Q 844 2556 844 2016 
z
" transform="scale(0.015625)"/>
        <path id="TimesNewRomanPSMT-32" d="M 2934 816 
L 2638 0 
L 138 0 
L 138 116 
Q 1241 1122 1691 1759 
Q 2141 2397 2141 2925 
Q 2141 3328 1894 3587 
Q 1647 3847 1303 3847 
Q 991 3847 742 3664 
Q 494 3481 375 3128 
L 259 3128 
Q 338 3706 661 4015 
Q 984 4325 1469 4325 
Q 1984 4325 2329 3994 
Q 2675 3663 2675 3213 
Q 2675 2891 2525 2569 
Q 2294 2063 1775 1497 
Q 997 647 803 472 
L 1909 472 
Q 2247 472 2383 497 
Q 2519 522 2628 598 
Q 2738 675 2819 816 
L 2934 816 
z
" transform="scale(0.015625)"/>
        <path id="TimesNewRomanPSMT-35" d="M 2778 4238 
L 2534 3706 
L 1259 3706 
L 981 3138 
Q 1809 3016 2294 2522 
Q 2709 2097 2709 1522 
Q 2709 1188 2573 903 
Q 2438 619 2231 419 
Q 2025 219 1772 97 
Q 1413 -75 1034 -75 
Q 653 -75 479 54 
Q 306 184 306 341 
Q 306 428 378 495 
Q 450 563 559 563 
Q 641 563 702 538 
Q 763 513 909 409 
Q 1144 247 1384 247 
Q 1750 247 2026 523 
Q 2303 800 2303 1197 
Q 2303 1581 2056 1914 
Q 1809 2247 1375 2428 
Q 1034 2569 447 2591 
L 1259 4238 
L 2778 4238 
z
" transform="scale(0.015625)"/>
       </defs>
       <use xlink:href="#TimesNewRomanPSMT-30"/>
       <use xlink:href="#TimesNewRomanPSMT-2e" x="50"/>
       <use xlink:href="#TimesNewRomanPSMT-32" x="75"/>
       <use xlink:href="#TimesNewRomanPSMT-35" x="125"/>
      </g>
     </g>
    </g>
    <g id="ytick_2">
     <g id="line2d_8">
      <path d="M 130.068427 79.711411 
C 137.281206 79.711411 144.423849 81.132171 151.087588 83.892382 
C 157.751327 86.652593 163.806567 90.698575 168.906772 95.79878 
C 174.006977 100.898985 178.052959 106.954226 180.81317 113.617964 
C 183.573381 120.281703 184.994141 127.424346 184.994141 134.637125 
C 184.994141 141.849904 183.573381 148.992547 180.81317 155.656286 
C 178.052959 162.320024 174.006977 168.375265 168.906772 173.47547 
C 163.806567 178.575675 157.751327 182.621657 151.087588 185.381868 
C 144.423849 188.142079 137.281206 189.562839 130.068427 189.562839 
C 122.855648 189.562839 115.713005 188.142079 109.049266 185.381868 
C 102.385528 182.621657 96.330287 178.575675 91.230082 173.47547 
C 86.129877 168.375265 82.083895 162.320024 79.323684 155.656286 
C 76.563473 148.992547 75.142713 141.849904 75.142713 134.637125 
C 75.142713 127.424346 76.563473 120.281703 79.323684 113.617964 
C 82.083895 106.954226 86.129877 100.898985 91.230082 95.79878 
C 96.330287 90.698575 102.385528 86.652593 109.049266 83.892382 
C 115.713005 81.132171 122.855648 79.711411 130.068427 79.711411 
" clip-path="url(#pf5e02a3ac5)" style="fill: none; stroke: #b0b0b0; stroke-opacity: 0.45; stroke-width: 0.6; stroke-linecap: square"/>
     </g>
     <g id="text_8">
      <!-- 0.50 -->
      <g transform="translate(151.087588 82.181132) scale(0.08 -0.08)">
       <use xlink:href="#TimesNewRomanPSMT-30"/>
       <use xlink:href="#TimesNewRomanPSMT-2e" x="50"/>
       <use xlink:href="#TimesNewRomanPSMT-35" x="75"/>
       <use xlink:href="#TimesNewRomanPSMT-30" x="125"/>
      </g>
     </g>
    </g>
    <g id="ytick_3">
     <g id="line2d_9">
      <path d="M 130.068427 52.248554 
C 140.887595 52.248554 151.60156 54.379694 161.597168 58.52001 
C 171.592776 62.660327 180.675638 68.7293 188.325945 76.379607 
C 195.976252 84.029915 202.045226 93.112776 206.185542 103.108384 
C 210.325858 113.103992 212.456999 123.817957 212.456999 134.637125 
C 212.456999 145.456293 210.325858 156.170258 206.185542 166.165866 
C 202.045226 176.161474 195.976252 185.244335 188.325945 192.894643 
C 180.675638 200.54495 171.592776 206.613923 161.597168 210.75424 
C 151.60156 214.894556 140.887595 217.025696 130.068427 217.025696 
C 119.249259 217.025696 108.535294 214.894556 98.539686 210.75424 
C 88.544078 206.613923 79.461217 200.54495 71.81091 192.894643 
C 64.160602 185.244335 58.091629 176.161474 53.951312 166.165866 
C 49.810996 156.170258 47.679856 145.456293 47.679856 134.637125 
C 47.679856 123.817957 49.810996 113.103992 53.951312 103.108384 
C 58.091629 93.112776 64.160602 84.029915 71.81091 76.379607 
C 79.461217 68.7293 88.544078 62.660327 98.539686 58.52001 
C 108.535294 54.379694 119.249259 52.248554 130.068427 52.248554 
" clip-path="url(#pf5e02a3ac5)" style="fill: none; stroke: #b0b0b0; stroke-opacity: 0.45; stroke-width: 0.6; stroke-linecap: square"/>
     </g>
     <g id="text_9">
      <!-- 0.75 -->
      <g transform="translate(161.597168 56.80876) scale(0.08 -0.08)">
       <defs>
        <path id="TimesNewRomanPSMT-37" d="M 644 4238 
L 2916 4238 
L 2916 4119 
L 1503 -88 
L 1153 -88 
L 2419 3728 
L 1253 3728 
Q 900 3728 750 3644 
Q 488 3500 328 3200 
L 238 3234 
L 644 4238 
z
" transform="scale(0.015625)"/>
       </defs>
       <use xlink:href="#TimesNewRomanPSMT-30"/>
       <use xlink:href="#TimesNewRomanPSMT-2e" x="50"/>
       <use xlink:href="#TimesNewRomanPSMT-37" x="75"/>
       <use xlink:href="#TimesNewRomanPSMT-35" x="125"/>
      </g>
     </g>
    </g>
    <g id="ytick_4">
     <g id="line2d_10">
      <path d="M 130.068427 24.785696 
C 144.493985 24.785696 158.779272 27.627217 172.106749 33.147639 
C 185.434226 38.66806 197.544708 46.760025 207.745117 56.960435 
C 217.945527 67.160844 226.037492 79.271326 231.557914 92.598803 
C 237.078335 105.926281 239.919856 120.211568 239.919856 134.637125 
C 239.919856 149.062682 237.078335 163.347969 231.557914 176.675447 
C 226.037492 190.002924 217.945527 202.113406 207.745117 212.313815 
C 197.544708 222.514225 185.434226 230.60619 172.106749 236.126611 
C 158.779272 241.647033 144.493985 244.488554 130.068427 244.488554 
C 115.64287 244.488554 101.357583 241.647033 88.030105 236.126611 
C 74.702628 230.60619 62.592147 222.514225 52.391737 212.313815 
C 42.191328 202.113406 34.099362 190.002924 28.578941 176.675447 
C 23.058519 163.347969 20.216999 149.062682 20.216999 134.637125 
C 20.216999 120.211568 23.058519 105.926281 28.578941 92.598803 
C 34.099362 79.271326 42.191328 67.160844 52.391737 56.960435 
C 62.592147 46.760025 74.702628 38.66806 88.030105 33.147639 
C 101.357583 27.627217 115.64287 24.785696 130.068427 24.785696 
" clip-path="url(#pf5e02a3ac5)" style="fill: none; stroke: #b0b0b0; stroke-opacity: 0.45; stroke-width: 0.6; stroke-linecap: square"/>
     </g>
     <g id="text_10">
      <!-- 1.00 -->
      <g transform="translate(172.106749 31.436389) scale(0.08 -0.08)">
       <defs>
        <path id="TimesNewRomanPSMT-31" d="M 750 3822 
L 1781 4325 
L 1884 4325 
L 1884 747 
Q 1884 391 1914 303 
Q 1944 216 2037 169 
Q 2131 122 2419 116 
L 2419 0 
L 825 0 
L 825 116 
Q 1125 122 1212 167 
Q 1300 213 1334 289 
Q 1369 366 1369 747 
L 1369 3034 
Q 1369 3497 1338 3628 
Q 1316 3728 1258 3775 
Q 1200 3822 1119 3822 
Q 1003 3822 797 3725 
L 750 3822 
z
" transform="scale(0.015625)"/>
       </defs>
       <use xlink:href="#TimesNewRomanPSMT-31"/>
       <use xlink:href="#TimesNewRomanPSMT-2e" x="50"/>
       <use xlink:href="#TimesNewRomanPSMT-30" x="75"/>
       <use xlink:href="#TimesNewRomanPSMT-30" x="125"/>
      </g>
     </g>
    </g>
   </g>
   <g id="line2d_11">
    <path d="M 130.068427 36.190302 
L 188.124221 101.118597 
L 215.164359 183.767284 
L 130.068427 182.834729 
L 42.286809 185.317866 
L 35.70886 80.158603 
L 130.068427 36.190302 
" clip-path="url(#pf5e02a3ac5)" style="fill: none; stroke: #5b6472; stroke-width: 1.6; stroke-linecap: square"/>
   </g>
   <g id="line2d_12">
    <path d="M 130.068427 46.285354 
L 191.153021 99.369918 
L 210.344018 180.984259 
L 130.068427 185.178991 
L 73.86082 167.088602 
L 36.871739 80.829992 
L 130.068427 46.285354 
" clip-path="url(#pf5e02a3ac5)" style="fill: none; stroke: #c47a47; stroke-width: 1.6; stroke-linecap: square"/>
   </g>
   <g id="line2d_13">
    <path d="M 130.068427 36.417762 
L 225.202555 79.711411 
L 223.589829 188.631731 
L 130.068427 215.780614 
L 54.865649 178.055469 
L 34.994417 79.74612 
L 130.068427 36.417762 
" clip-path="url(#pf5e02a3ac5)" style="fill: none; stroke: #d6a23a; stroke-width: 1.6; stroke-linecap: square"/>
   </g>
   <g id="line2d_14">
    <path d="M 130.068427 37.70361 
L 176.624607 107.757902 
L 211.089831 181.414854 
L 130.068427 244.488554 
L 39.142228 187.13339 
L 35.092316 79.802642 
L 130.068427 37.70361 
" clip-path="url(#pf5e02a3ac5)" style="fill: none; stroke: #6b9e72; stroke-width: 1.6; stroke-linecap: square"/>
   </g>
   <g id="line2d_15">
    <path d="M 130.068427 35.921483 
L 187.240493 101.628817 
L 215.775026 184.119853 
L 130.068427 211.996005 
L 47.974741 182.033937 
L 36.070333 80.3673 
L 130.068427 35.921483 
" clip-path="url(#pf5e02a3ac5)" style="fill: none; stroke: #4e79a7; stroke-width: 1.6; stroke-linecap: square"/>
   </g>
   <g id="line2d_16">
    <path d="M 130.068427 34.76722 
L 189.874531 100.108055 
L 214.152708 183.183207 
L 130.068427 222.07048 
L 43.580334 184.571049 
L 36.288379 80.493189 
L 130.068427 34.76722 
" clip-path="url(#pf5e02a3ac5)" style="fill: none; stroke: #b55d60; stroke-width: 1.6; stroke-linecap: square"/>
   </g>
   <g id="patch_5">
    <path d="M 130.068427 19.293125 
C 114.921592 19.293125 99.92204 22.276721 85.928189 28.073164 
C 71.934338 33.869607 59.218333 42.36617 48.507903 53.0766 
C 37.797473 63.78703 29.300909 76.503036 23.504466 90.496887 
C 17.708023 104.490738 14.724427 119.49029 14.724427 134.637125 
C 14.724427 149.78396 17.708023 164.783512 23.504466 178.777363 
C 29.300909 192.771214 37.797473 205.48722 48.507903 216.19765 
C 59.218333 226.90808 71.934338 235.404643 85.928189 241.201086 
C 99.92204 246.997529 114.921592 249.981125 130.068427 249.981125 
C 145.215262 249.981125 160.214814 246.997529 174.208665 241.201086 
C 188.202516 235.404643 200.918522 226.90808 211.628952 216.19765 
C 222.339382 205.48722 230.835945 192.771214 236.632388 178.777363 
C 242.428831 164.783512 245.412427 149.78396 245.412427 134.637125 
C 245.412427 119.49029 242.428831 104.490738 236.632388 90.496887 
C 230.835945 76.503036 222.339382 63.78703 211.628952 53.0766 
C 200.918522 42.36617 188.202516 33.869607 174.208665 28.073164 
C 160.214814 22.276721 145.215262 19.293125 130.068427 19.293125 
" style="fill: none; stroke: #000000; stroke-width: 0.8; stroke-linejoin: miter; stroke-linecap: square"/>
   </g>
   <g id="legend_1">
    <g id="line2d_17">
     <path d="M 10.77624 284.299925 
L 19.77624 284.299925 
L 28.77624 284.299925 
" style="fill: none; stroke: #5b6472; stroke-width: 1.6; stroke-linecap: square"/>
    </g>
    <g id="text_11">
     <!-- Input -->
     <g transform="translate(35.97624 287.449925) scale(0.09 -0.09)">
      <defs>
       <path id="TimesNewRomanPSMT-49" d="M 1975 116 
L 1975 0 
L 159 0 
L 159 116 
L 309 116 
Q 572 116 691 269 
Q 766 369 766 750 
L 766 3488 
Q 766 3809 725 3913 
Q 694 3991 597 4047 
Q 459 4122 309 4122 
L 159 4122 
L 159 4238 
L 1975 4238 
L 1975 4122 
L 1822 4122 
Q 1563 4122 1444 3969 
Q 1366 3869 1366 3488 
L 1366 750 
Q 1366 428 1406 325 
Q 1438 247 1538 191 
Q 1672 116 1822 116 
L 1975 116 
z
" transform="scale(0.015625)"/>
       <path id="TimesNewRomanPSMT-75" d="M 2709 2863 
L 2709 1128 
Q 2709 631 2732 520 
Q 2756 409 2807 365 
Q 2859 322 2928 322 
Q 3025 322 3147 375 
L 3191 266 
L 2334 -88 
L 2194 -88 
L 2194 519 
Q 1825 119 1631 15 
Q 1438 -88 1222 -88 
Q 981 -88 804 51 
Q 628 191 559 409 
Q 491 628 491 1028 
L 491 2306 
Q 491 2509 447 2587 
Q 403 2666 317 2708 
Q 231 2750 6 2747 
L 6 2863 
L 1009 2863 
L 1009 947 
Q 1009 547 1148 422 
Q 1288 297 1484 297 
Q 1619 297 1789 381 
Q 1959 466 2194 703 
L 2194 2325 
Q 2194 2569 2105 2655 
Q 2016 2741 1734 2747 
L 1734 2863 
L 2709 2863 
z
" transform="scale(0.015625)"/>
      </defs>
      <use xlink:href="#TimesNewRomanPSMT-49"/>
      <use xlink:href="#TimesNewRomanPSMT-6e" x="33.300781"/>
      <use xlink:href="#TimesNewRomanPSMT-70" x="83.300781"/>
      <use xlink:href="#TimesNewRomanPSMT-75" x="133.300781"/>
      <use xlink:href="#TimesNewRomanPSMT-74" x="183.300781"/>
     </g>
    </g>
    <g id="line2d_18">
     <path d="M 10.77624 297.025081 
L 19.77624 297.025081 
L 28.77624 297.025081 
" style="fill: none; stroke: #c47a47; stroke-width: 1.6; stroke-linecap: square"/>
    </g>
    <g id="text_12">
     <!-- DCP-like -->
     <g transform="translate(35.97624 300.175081) scale(0.09 -0.09)">
      <defs>
       <path id="TimesNewRomanPSMT-44" d="M 109 0 
L 109 116 
L 269 116 
Q 538 116 650 288 
Q 719 391 719 750 
L 719 3488 
Q 719 3884 631 3984 
Q 509 4122 269 4122 
L 109 4122 
L 109 4238 
L 1834 4238 
Q 2784 4238 3279 4022 
Q 3775 3806 4076 3303 
Q 4378 2800 4378 2141 
Q 4378 1256 3841 663 
Q 3238 0 2003 0 
L 109 0 
z
M 1319 306 
Q 1716 219 1984 219 
Q 2709 219 3187 728 
Q 3666 1238 3666 2109 
Q 3666 2988 3187 3494 
Q 2709 4000 1959 4000 
Q 1678 4000 1319 3909 
L 1319 306 
z
" transform="scale(0.015625)"/>
       <path id="TimesNewRomanPSMT-50" d="M 1313 1984 
L 1313 750 
Q 1313 350 1400 253 
Q 1519 116 1759 116 
L 1922 116 
L 1922 0 
L 106 0 
L 106 116 
L 266 116 
Q 534 116 650 291 
Q 713 388 713 750 
L 713 3488 
Q 713 3888 628 3984 
Q 506 4122 266 4122 
L 106 4122 
L 106 4238 
L 1659 4238 
Q 2228 4238 2556 4120 
Q 2884 4003 3109 3725 
Q 3334 3447 3334 3066 
Q 3334 2547 2992 2222 
Q 2650 1897 2025 1897 
Q 1872 1897 1694 1919 
Q 1516 1941 1313 1984 
z
M 1313 2163 
Q 1478 2131 1606 2115 
Q 1734 2100 1825 2100 
Q 2150 2100 2386 2351 
Q 2622 2603 2622 3003 
Q 2622 3278 2509 3514 
Q 2397 3750 2190 3867 
Q 1984 3984 1722 3984 
Q 1563 3984 1313 3925 
L 1313 2163 
z
" transform="scale(0.015625)"/>
       <path id="TimesNewRomanPSMT-2d" d="M 259 1672 
L 1875 1672 
L 1875 1200 
L 259 1200 
L 259 1672 
z
" transform="scale(0.015625)"/>
      </defs>
      <use xlink:href="#TimesNewRomanPSMT-44"/>
      <use xlink:href="#TimesNewRomanPSMT-43" x="72.216797"/>
      <use xlink:href="#TimesNewRomanPSMT-50" x="138.916016"/>
      <use xlink:href="#TimesNewRomanPSMT-2d" x="194.53125"/>
      <use xlink:href="#TimesNewRomanPSMT-6c" x="227.832031"/>
      <use xlink:href="#TimesNewRomanPSMT-69" x="255.615234"/>
      <use xlink:href="#TimesNewRomanPSMT-6b" x="283.398438"/>
      <use xlink:href="#TimesNewRomanPSMT-65" x="333.398438"/>
     </g>
    </g>
    <g id="line2d_19">
     <path d="M 87.976552 284.299925 
L 96.976552 284.299925 
L 105.976552 284.299925 
" style="fill: none; stroke: #d6a23a; stroke-width: 1.6; stroke-linecap: square"/>
    </g>
    <g id="text_13">
     <!-- CLAHE-like -->
     <g transform="translate(113.176552 287.449925) scale(0.09 -0.09)">
      <defs>
       <path id="TimesNewRomanPSMT-41" d="M 2928 1419 
L 1288 1419 
L 1000 750 
Q 894 503 894 381 
Q 894 284 986 211 
Q 1078 138 1384 116 
L 1384 0 
L 50 0 
L 50 116 
Q 316 163 394 238 
Q 553 388 747 847 
L 2238 4334 
L 2347 4334 
L 3822 809 
Q 4000 384 4145 257 
Q 4291 131 4550 116 
L 4550 0 
L 2878 0 
L 2878 116 
Q 3131 128 3220 200 
Q 3309 272 3309 375 
Q 3309 513 3184 809 
L 2928 1419 
z
M 2841 1650 
L 2122 3363 
L 1384 1650 
L 2841 1650 
z
" transform="scale(0.015625)"/>
       <path id="TimesNewRomanPSMT-48" d="M 1316 2272 
L 3284 2272 
L 3284 3484 
Q 3284 3809 3244 3913 
Q 3213 3991 3113 4047 
Q 2978 4122 2828 4122 
L 2678 4122 
L 2678 4238 
L 4491 4238 
L 4491 4122 
L 4341 4122 
Q 4191 4122 4056 4050 
Q 3956 4000 3920 3898 
Q 3884 3797 3884 3484 
L 3884 750 
Q 3884 428 3925 325 
Q 3956 247 4053 191 
Q 4191 116 4341 116 
L 4491 116 
L 4491 0 
L 2678 0 
L 2678 116 
L 2828 116 
Q 3088 116 3206 269 
Q 3284 369 3284 750 
L 3284 2041 
L 1316 2041 
L 1316 750 
Q 1316 428 1356 325 
Q 1388 247 1488 191 
Q 1622 116 1772 116 
L 1925 116 
L 1925 0 
L 109 0 
L 109 116 
L 259 116 
Q 522 116 641 269 
Q 716 369 716 750 
L 716 3484 
Q 716 3809 675 3913 
Q 644 3991 547 4047 
Q 409 4122 259 4122 
L 109 4122 
L 109 4238 
L 1925 4238 
L 1925 4122 
L 1772 4122 
Q 1622 4122 1488 4050 
Q 1391 4000 1353 3898 
Q 1316 3797 1316 3484 
L 1316 2272 
z
" transform="scale(0.015625)"/>
      </defs>
      <use xlink:href="#TimesNewRomanPSMT-43"/>
      <use xlink:href="#TimesNewRomanPSMT-4c" x="66.699219"/>
      <use xlink:href="#TimesNewRomanPSMT-41" x="127.783203"/>
      <use xlink:href="#TimesNewRomanPSMT-48" x="200"/>
      <use xlink:href="#TimesNewRomanPSMT-45" x="272.216797"/>
      <use xlink:href="#TimesNewRomanPSMT-2d" x="333.300781"/>
      <use xlink:href="#TimesNewRomanPSMT-6c" x="366.601562"/>
      <use xlink:href="#TimesNewRomanPSMT-69" x="394.384766"/>
      <use xlink:href="#TimesNewRomanPSMT-6b" x="422.167969"/>
      <use xlink:href="#TimesNewRomanPSMT-65" x="472.167969"/>
     </g>
    </g>
    <g id="line2d_20">
     <path d="M 87.976552 297.025081 
L 96.976552 297.025081 
L 105.976552 297.025081 
" style="fill: none; stroke: #6b9e72; stroke-width: 1.6; stroke-linecap: square"/>
    </g>
    <g id="text_14">
     <!-- Retinex-like -->
     <g transform="translate(113.176552 300.175081) scale(0.09 -0.09)">
      <defs>
       <path id="TimesNewRomanPSMT-52" d="M 4325 0 
L 3194 0 
L 1759 1981 
Q 1600 1975 1500 1975 
Q 1459 1975 1412 1976 
Q 1366 1978 1316 1981 
L 1316 750 
Q 1316 350 1403 253 
Q 1522 116 1759 116 
L 1925 116 
L 1925 0 
L 109 0 
L 109 116 
L 269 116 
Q 538 116 653 291 
Q 719 388 719 750 
L 719 3488 
Q 719 3888 631 3984 
Q 509 4122 269 4122 
L 109 4122 
L 109 4238 
L 1653 4238 
Q 2328 4238 2648 4139 
Q 2969 4041 3192 3777 
Q 3416 3513 3416 3147 
Q 3416 2756 3161 2468 
Q 2906 2181 2372 2063 
L 3247 847 
Q 3547 428 3762 290 
Q 3978 153 4325 116 
L 4325 0 
z
M 1316 2178 
Q 1375 2178 1419 2176 
Q 1463 2175 1491 2175 
Q 2097 2175 2405 2437 
Q 2713 2700 2713 3106 
Q 2713 3503 2464 3751 
Q 2216 4000 1806 4000 
Q 1625 4000 1316 3941 
L 1316 2178 
z
" transform="scale(0.015625)"/>
       <path id="TimesNewRomanPSMT-78" d="M 84 2863 
L 1431 2863 
L 1431 2747 
Q 1303 2747 1251 2703 
Q 1200 2659 1200 2588 
Q 1200 2513 1309 2356 
Q 1344 2306 1413 2200 
L 1616 1875 
L 1850 2200 
Q 2075 2509 2075 2591 
Q 2075 2656 2022 2701 
Q 1969 2747 1850 2747 
L 1850 2863 
L 2819 2863 
L 2819 2747 
Q 2666 2738 2553 2663 
Q 2400 2556 2134 2200 
L 1744 1678 
L 2456 653 
Q 2719 275 2831 198 
Q 2944 122 3122 113 
L 3122 0 
L 1772 0 
L 1772 113 
Q 1913 113 1991 175 
Q 2050 219 2050 291 
Q 2050 363 1850 653 
L 1431 1266 
L 972 653 
Q 759 369 759 316 
Q 759 241 829 180 
Q 900 119 1041 113 
L 1041 0 
L 106 0 
L 106 113 
Q 219 128 303 191 
Q 422 281 703 653 
L 1303 1450 
L 759 2238 
Q 528 2575 401 2661 
Q 275 2747 84 2747 
L 84 2863 
z
" transform="scale(0.015625)"/>
      </defs>
      <use xlink:href="#TimesNewRomanPSMT-52"/>
      <use xlink:href="#TimesNewRomanPSMT-65" x="66.699219"/>
      <use xlink:href="#TimesNewRomanPSMT-74" x="111.083984"/>
      <use xlink:href="#TimesNewRomanPSMT-69" x="138.867188"/>
      <use xlink:href="#TimesNewRomanPSMT-6e" x="166.650391"/>
      <use xlink:href="#TimesNewRomanPSMT-65" x="216.650391"/>
      <use xlink:href="#TimesNewRomanPSMT-78" x="261.035156"/>
      <use xlink:href="#TimesNewRomanPSMT-2d" x="311.035156"/>
      <use xlink:href="#TimesNewRomanPSMT-6c" x="344.335938"/>
      <use xlink:href="#TimesNewRomanPSMT-69" x="372.119141"/>
      <use xlink:href="#TimesNewRomanPSMT-6b" x="399.902344"/>
      <use xlink:href="#TimesNewRomanPSMT-65" x="449.902344"/>
     </g>
    </g>
    <g id="line2d_21">
     <path d="M 177.665771 284.299925 
L 186.665771 284.299925 
L 195.665771 284.299925 
" style="fill: none; stroke: #4e79a7; stroke-width: 1.6; stroke-linecap: square"/>
    </g>
    <g id="text_15">
     <!-- RIDCP -->
     <g transform="translate(202.865771 287.449925) scale(0.09 -0.09)">
      <use xlink:href="#TimesNewRomanPSMT-52"/>
      <use xlink:href="#TimesNewRomanPSMT-49" x="66.699219"/>
      <use xlink:href="#TimesNewRomanPSMT-44" x="100"/>
      <use xlink:href="#TimesNewRomanPSMT-43" x="172.216797"/>
      <use xlink:href="#TimesNewRomanPSMT-50" x="238.916016"/>
     </g>
    </g>
    <g id="line2d_22">
     <path d="M 177.665771 297.025081 
L 186.665771 297.025081 
L 195.665771 297.025081 
" style="fill: none; stroke: #b55d60; stroke-width: 1.6; stroke-linecap: square"/>
    </g>
    <g id="text_16">
     <!-- LUCIDMine -->
     <g transform="translate(202.865771 300.175081) scale(0.09 -0.09)">
      <defs>
       <path id="TimesNewRomanPSMT-55" d="M 3053 4122 
L 3053 4238 
L 4553 4238 
L 4553 4122 
L 4394 4122 
Q 4144 4122 4009 3913 
Q 3944 3816 3944 3463 
L 3944 1744 
Q 3944 1106 3817 754 
Q 3691 403 3320 151 
Q 2950 -100 2313 -100 
Q 1619 -100 1259 140 
Q 900 381 750 788 
Q 650 1066 650 1831 
L 650 3488 
Q 650 3878 542 4000 
Q 434 4122 194 4122 
L 34 4122 
L 34 4238 
L 1866 4238 
L 1866 4122 
L 1703 4122 
Q 1441 4122 1328 3956 
Q 1250 3844 1250 3488 
L 1250 1641 
Q 1250 1394 1295 1075 
Q 1341 756 1459 578 
Q 1578 400 1801 284 
Q 2025 169 2350 169 
Q 2766 169 3094 350 
Q 3422 531 3542 814 
Q 3663 1097 3663 1772 
L 3663 3488 
Q 3663 3884 3575 3984 
Q 3453 4122 3213 4122 
L 3053 4122 
z
" transform="scale(0.015625)"/>
       <path id="TimesNewRomanPSMT-4d" d="M 2619 0 
L 981 3566 
L 981 734 
Q 981 344 1066 247 
Q 1181 116 1431 116 
L 1581 116 
L 1581 0 
L 106 0 
L 106 116 
L 256 116 
Q 525 116 638 278 
Q 706 378 706 734 
L 706 3503 
Q 706 3784 644 3909 
Q 600 4000 483 4061 
Q 366 4122 106 4122 
L 106 4238 
L 1306 4238 
L 2844 922 
L 4356 4238 
L 5556 4238 
L 5556 4122 
L 5409 4122 
Q 5138 4122 5025 3959 
Q 4956 3859 4956 3503 
L 4956 734 
Q 4956 344 5044 247 
Q 5159 116 5409 116 
L 5556 116 
L 5556 0 
L 3756 0 
L 3756 116 
L 3906 116 
Q 4178 116 4288 278 
Q 4356 378 4356 734 
L 4356 3566 
L 2722 0 
L 2619 0 
z
" transform="scale(0.015625)"/>
      </defs>
      <use xlink:href="#TimesNewRomanPSMT-4c"/>
      <use xlink:href="#TimesNewRomanPSMT-55" x="61.083984"/>
      <use xlink:href="#TimesNewRomanPSMT-43" x="133.300781"/>
      <use xlink:href="#TimesNewRomanPSMT-49" x="200"/>
      <use xlink:href="#TimesNewRomanPSMT-44" x="233.300781"/>
      <use xlink:href="#TimesNewRomanPSMT-4d" x="305.517578"/>
      <use xlink:href="#TimesNewRomanPSMT-69" x="394.433594"/>
      <use xlink:href="#TimesNewRomanPSMT-6e" x="422.216797"/>
      <use xlink:href="#TimesNewRomanPSMT-65" x="472.216797"/>
     </g>
    </g>
   </g>
  </g>
 </g>
 <defs>
  <clipPath id="pf5e02a3ac5">
   <path d="M 245.412427 134.637125 
C 245.412427 119.49029 242.428831 104.490738 236.632388 90.496887 
C 230.835945 76.503036 222.339382 63.78703 211.628952 53.0766 
C 200.918522 42.36617 188.202516 33.869607 174.208665 28.073164 
C 160.214814 22.276721 145.215262 19.293125 130.068427 19.293125 
C 114.921592 19.293125 99.92204 22.276721 85.928189 28.073164 
C 71.934338 33.869607 59.218333 42.36617 48.507903 53.0766 
C 37.797473 63.78703 29.300909 76.503036 23.504466 90.496887 
C 17.708023 104.490738 14.724427 119.49029 14.724427 134.637125 
C 14.724427 149.78396 17.708023 164.783512 23.504466 178.777363 
C 29.300909 192.771214 37.797473 205.48722 48.507903 216.19765 
C 59.218333 226.90808 71.934338 235.404643 85.928189 241.201086 
C 99.92204 246.997529 114.921592 249.981125 130.068427 249.981125 
C 145.215262 249.981125 160.214814 246.997529 174.208665 241.201086 
C 188.202516 235.404643 200.918522 226.90808 211.628952 216.19765 
C 222.339382 205.48722 230.835945 192.771214 236.632388 178.777363 
C 242.428831 164.783512 245.412427 149.78396 245.412427 134.637125 
M 130.068427 134.637125 
C 130.068427 134.637125 130.068427 134.637125 130.068427 134.637125 
C 130.068427 134.637125 130.068427 134.637125 130.068427 134.637125 
C 130.068427 134.637125 130.068427 134.637125 130.068427 134.637125 
C 130.068427 134.637125 130.068427 134.637125 130.068427 134.637125 
C 130.068427 134.637125 130.068427 134.637125 130.068427 134.637125 
C 130.068427 134.637125 130.068427 134.637125 130.068427 134.637125 
C 130.068427 134.637125 130.068427 134.637125 130.068427 134.637125 
C 130.068427 134.637125 130.068427 134.637125 130.068427 134.637125 
C 130.068427 134.637125 130.068427 134.637125 130.068427 134.637125 
C 130.068427 134.637125 130.068427 134.637125 130.068427 134.637125 
C 130.068427 134.637125 130.068427 134.637125 130.068427 134.637125 
C 130.068427 134.637125 130.068427 134.637125 130.068427 134.637125 
C 130.068427 134.637125 130.068427 134.637125 130.068427 134.637125 
C 130.068427 134.637125 130.068427 134.637125 130.068427 134.637125 
C 130.068427 134.637125 130.068427 134.637125 130.068427 134.637125 
C 130.068427 134.637125 130.068427 134.637125 130.068427 134.637125 
z
"/>
  </clipPath>
 </defs>
</svg>
